<svg width="40" height="40" viewBox="0 0 40 40" fill="none" xmlns="http://www.w3.org/2000/svg">
<mask id="path-2-outside-1_61_1575" maskUnits="userSpaceOnUse" x="6" y="6" width="28" height="29" fill="black">
<rect fill="white" x="6" y="6" width="28" height="29"/>
<path d="M6 6H34V34H6V6Z"/>
</mask>
<path d="M34 34V33H6V34V35H34V34Z" fill="white" mask="url(#path-2-outside-1_61_1575)"/>
<path d="M11.8333 16.2666C11.8333 14.3064 11.8333 13.3264 12.2148 12.5777C12.5504 11.9191 13.0858 11.3837 13.7444 11.0481C14.4931 10.6666 15.4731 10.6666 17.4333 10.6666H22.5667C24.5268 10.6666 25.5069 10.6666 26.2556 11.0481C26.9142 11.3837 27.4496 11.9191 27.7852 12.5777C28.1667 13.3264 28.1667 14.3064 28.1667 16.2666V31.6666L20 27L11.8333 31.6666V16.2666Z" stroke="white" stroke-width="2" stroke-linecap="round" stroke-linejoin="round"/>
</svg>
