<svg width="100" height="48" viewBox="0 0 100 48" fill="none" xmlns="http://www.w3.org/2000/svg">
<path d="M100 32.0275H88.7744V35.7298H100V32.0275Z" fill="#0762C7"/>
<path d="M95.8099 20.1852L86.0883 25.7646L87.9505 28.971L97.6722 23.3915L95.8099 20.1852Z" fill="#26D07C"/>
<path d="M87.9517 38.7856L86.0895 41.9919L95.8112 47.5714L97.6734 44.3651L87.9517 38.7856Z" fill="#FF9E1B"/>
<path d="M33.8795 34.6205C33.8795 37.3017 31.6934 39.4749 28.9962 39.4749C26.2989 39.4749 24.1128 37.3017 24.1128 34.6205V24.5795H20.3883V34.6205C20.3883 39.3468 24.2423 43.1779 28.9969 43.1779C33.7514 43.1779 37.6047 39.3468 37.6047 34.6205V24.5795H33.8803V34.6205H33.8795Z" fill="white"/>
<path d="M9.35446 24.5795H5.63V28.2818H9.35446V28.2989C12.4547 28.2989 14.9673 30.7972 14.9673 33.8783C14.9673 36.9595 12.454 39.4578 9.35446 39.4578C6.25492 39.4578 3.74164 36.9602 3.74164 33.8783H3.72446V19H0V33.8783C0 39.0138 4.18832 43.1772 9.35446 43.1772C14.5206 43.1772 18.7089 39.0138 18.7089 33.8783C18.7089 28.7429 14.5213 24.5795 9.35446 24.5795Z" fill="white"/>
<path d="M55.3645 24.5795H51.64V28.2818H55.3645V28.2989C58.464 28.2989 60.9773 30.7972 60.9773 33.8783C60.9773 36.9595 58.4647 39.4578 55.3645 39.4578C52.2642 39.4578 49.7517 36.9602 49.7517 33.8783H49.7345V19H46.01V33.8783C46.01 39.0138 50.1983 43.1772 55.3645 43.1772C60.5306 43.1772 64.7189 39.0138 64.7189 33.8783C64.7189 28.7429 60.5306 24.5795 55.3645 24.5795" fill="white"/>
<path d="M43.6692 19H39.9447V42.4436H43.6692V19Z" fill="white"/>
<path d="M73.807 35.7299H84.8465C84.9682 35.1314 85.0327 34.5124 85.0327 33.8783C85.0327 28.7429 80.8443 24.5795 75.6782 24.5795C70.512 24.5795 66.3237 28.7429 66.3237 33.8783C66.3237 39.0138 70.512 43.1779 75.6782 43.1779H79.4027V39.4756H75.6782V39.4585C72.5786 39.4585 70.0654 36.9602 70.0654 33.8791C70.0654 30.7979 72.5779 28.2996 75.6782 28.2996C78.1242 28.2996 80.1994 29.8579 80.9682 32.0275H73.8077V35.7299H73.807Z" fill="white"/>
<path d="M4.864 15.112C4.11733 15.112 3.44533 14.984 2.848 14.728C2.25067 14.4613 1.78133 14.088 1.44 13.608C1.09867 13.128 0.928 12.568 0.928 11.928H2.88C2.92267 12.408 3.10933 12.8027 3.44 13.112C3.78133 13.4213 4.256 13.576 4.864 13.576C5.49333 13.576 5.984 13.4267 6.336 13.128C6.688 12.8187 6.864 12.424 6.864 11.944C6.864 11.5707 6.752 11.2667 6.528 11.032C6.31467 10.7973 6.04267 10.616 5.712 10.488C5.392 10.36 4.944 10.2213 4.368 10.072C3.64267 9.88 3.05067 9.688 2.592 9.496C2.144 9.29333 1.76 8.984 1.44 8.568C1.12 8.152 0.96 7.59733 0.96 6.904C0.96 6.264 1.12 5.704 1.44 5.224C1.76 4.744 2.208 4.376 2.784 4.12C3.36 3.864 4.02667 3.736 4.784 3.736C5.86133 3.736 6.74133 4.008 7.424 4.552C8.11733 5.08533 8.50133 5.82133 8.576 6.76H6.56C6.528 6.35467 6.336 6.008 5.984 5.72C5.632 5.432 5.168 5.288 4.592 5.288C4.06933 5.288 3.64267 5.42133 3.312 5.688C2.98133 5.95467 2.816 6.33867 2.816 6.84C2.816 7.18133 2.91733 7.464 3.12 7.688C3.33333 7.90133 3.6 8.072 3.92 8.2C4.24 8.328 4.67733 8.46667 5.232 8.616C5.968 8.81867 6.56533 9.02133 7.024 9.224C7.49333 9.42667 7.888 9.74133 8.208 10.168C8.53867 10.584 8.704 11.144 8.704 11.848C8.704 12.4133 8.54933 12.9467 8.24 13.448C7.94133 13.9493 7.49867 14.3547 6.912 14.664C6.336 14.9627 5.65333 15.112 4.864 15.112ZM15.7362 6.04C16.4082 6.04 17.0056 6.184 17.5283 6.472C18.0616 6.76 18.4776 7.18667 18.7762 7.752C19.0856 8.31733 19.2403 9 19.2403 9.8V15H17.4323V10.072C17.4323 9.28267 17.2349 8.68 16.8403 8.264C16.4456 7.83733 15.9069 7.624 15.2242 7.624C14.5416 7.624 13.9976 7.83733 13.5922 8.264C13.1976 8.68 13.0002 9.28267 13.0002 10.072V15H11.1762V3.16H13.0002V7.208C13.3096 6.83467 13.6989 6.54667 14.1683 6.344C14.6482 6.14133 15.1709 6.04 15.7362 6.04ZM25.7109 15.144C24.8789 15.144 24.1269 14.9573 23.4549 14.584C22.7829 14.2 22.2549 13.6667 21.8709 12.984C21.4869 12.2907 21.2949 11.4907 21.2949 10.584C21.2949 9.688 21.4922 8.89333 21.8869 8.2C22.2815 7.50667 22.8202 6.97333 23.5029 6.6C24.1855 6.22667 24.9482 6.04 25.7909 6.04C26.6335 6.04 27.3962 6.22667 28.0789 6.6C28.7615 6.97333 29.3002 7.50667 29.6949 8.2C30.0895 8.89333 30.2869 9.688 30.2869 10.584C30.2869 11.48 30.0842 12.2747 29.6789 12.968C29.2735 13.6613 28.7189 14.2 28.0149 14.584C27.3215 14.9573 26.5535 15.144 25.7109 15.144ZM25.7109 13.56C26.1802 13.56 26.6175 13.448 27.0229 13.224C27.4389 13 27.7749 12.664 28.0309 12.216C28.2869 11.768 28.4149 11.224 28.4149 10.584C28.4149 9.944 28.2922 9.40533 28.0469 8.968C27.8015 8.52 27.4762 8.184 27.0709 7.96C26.6655 7.736 26.2282 7.624 25.7589 7.624C25.2895 7.624 24.8522 7.736 24.4469 7.96C24.0522 8.184 23.7375 8.52 23.5029 8.968C23.2682 9.40533 23.1509 9.944 23.1509 10.584C23.1509 11.5333 23.3909 12.2693 23.8709 12.792C24.3615 13.304 24.9749 13.56 25.7109 13.56ZM34.234 7.48C34.5433 7.07467 34.9647 6.73333 35.498 6.456C36.0313 6.17867 36.634 6.04 37.306 6.04C38.074 6.04 38.7727 6.232 39.402 6.616C40.042 6.98933 40.5433 7.51733 40.906 8.2C41.2687 8.88267 41.45 9.66667 41.45 10.552C41.45 11.4373 41.2687 12.232 40.906 12.936C40.5433 13.6293 40.042 14.1733 39.402 14.568C38.7727 14.952 38.074 15.144 37.306 15.144C36.634 15.144 36.0367 15.0107 35.514 14.744C34.9913 14.4667 34.5647 14.1253 34.234 13.72V19.192H32.41V6.184H34.234V7.48ZM39.594 10.552C39.594 9.944 39.466 9.42133 39.21 8.984C38.9647 8.536 38.634 8.2 38.218 7.976C37.8127 7.74133 37.3753 7.624 36.906 7.624C36.4473 7.624 36.01 7.74133 35.594 7.976C35.1887 8.21067 34.858 8.552 34.602 9C34.3567 9.448 34.234 9.976 34.234 10.584C34.234 11.192 34.3567 11.7253 34.602 12.184C34.858 12.632 35.1887 12.9733 35.594 13.208C36.01 13.4427 36.4473 13.56 36.906 13.56C37.3753 13.56 37.8127 13.4427 38.218 13.208C38.634 12.9627 38.9647 12.6107 39.21 12.152C39.466 11.6933 39.594 11.16 39.594 10.552Z" fill="white"/>
</svg>
