<svg width="61" height="66" viewBox="0 0 61 66" fill="none" xmlns="http://www.w3.org/2000/svg">
<path d="M0 20C0 8.95431 8.9543 0 20 0H41C52.0457 0 61 8.95431 61 20V46C61 57.0457 52.0457 66 41 66H20C8.95431 66 0 57.0457 0 46V20Z" fill="#08068D"/>
<path d="M26.25 47.5902H33.75M27 29.5902H33M30 29.5902L30 38.5902M34.5 37.5798C38.0474 35.8946 40.5 32.2788 40.5 28.0902C40.5 22.2912 35.799 17.5902 30 17.5902C24.201 17.5902 19.5 22.2912 19.5 28.0902C19.5 32.2788 21.9526 35.8946 25.5 37.5798V38.5902C25.5 39.988 25.5 40.6869 25.7284 41.2383C26.0328 41.9733 26.6169 42.5574 27.3519 42.8618C27.9033 43.0902 28.6022 43.0902 30 43.0902C31.3978 43.0902 32.0967 43.0902 32.648 42.8618C33.3831 42.5574 33.9672 41.9733 34.2716 41.2383C34.5 40.6869 34.5 39.988 34.5 38.5902V37.5798Z" stroke="#F6F9F9" stroke-width="2" stroke-linecap="round" stroke-linejoin="round"/>
</svg>
