<svg width="180" height="88" viewBox="0 0 180 88" fill="none" xmlns="http://www.w3.org/2000/svg">
<path d="M180 59.5897H159.794V66.2938H180V59.5897Z" fill="#0762C7"/>
<path d="M172.458 38.1461L154.959 48.2492L158.311 54.0551L175.81 43.952L172.458 38.1461Z" fill="#26D07C"/>
<path d="M158.313 71.8271L154.961 77.6329L172.46 87.736L175.812 81.9302L158.313 71.8271Z" fill="#FF9E1B"/>
<path d="M60.9831 64.285C60.9831 69.1401 57.048 73.0751 52.193 73.0751C47.3379 73.0751 43.4029 69.1401 43.4029 64.285V46.1031H36.6989V64.285C36.6989 72.8432 43.6361 79.7804 52.1943 79.7804C60.7524 79.7804 67.6884 72.8432 67.6884 64.285V46.1031H60.9844V64.285H60.9831Z" fill="#08068D"/>
<path d="M16.838 46.1031H10.134V52.8071H16.838V52.838C22.4185 52.838 26.9411 57.3619 26.9411 62.9411C26.9411 68.5203 22.4172 73.0442 16.838 73.0442C11.2589 73.0442 6.73496 68.5216 6.73496 62.9411H6.70403V36H0V62.9411C0 72.2402 7.53898 79.7791 16.838 79.7791C26.1371 79.7791 33.6761 72.2402 33.6761 62.9411C33.6761 53.6421 26.1384 46.1031 16.838 46.1031Z" fill="#08068D"/>
<path d="M99.656 46.1031H92.952V52.8071H99.656V52.838C105.235 52.838 109.759 57.3619 109.759 62.9411C109.759 68.5203 105.236 73.0442 99.656 73.0442C94.0756 73.0442 89.553 68.5216 89.553 62.9411H89.522V36H82.818V62.9411C82.818 72.2402 90.357 79.7791 99.656 79.7791C108.955 79.7791 116.494 72.2402 116.494 62.9411C116.494 53.6421 108.955 46.1031 99.656 46.1031" fill="#08068D"/>
<path d="M78.6046 36H71.9006V78.4507H78.6046V36Z" fill="#08068D"/>
<path d="M132.853 66.2938H152.724C152.943 65.2102 153.059 64.0892 153.059 62.9411C153.059 53.6421 145.52 46.1031 136.221 46.1031C126.922 46.1031 119.383 53.6421 119.383 62.9411C119.383 72.2402 126.922 79.7804 136.221 79.7804H142.925V73.0764H136.221V73.0455C130.642 73.0455 126.118 68.5216 126.118 62.9424C126.118 57.3632 130.64 52.8393 136.221 52.8393C140.623 52.8393 144.359 55.6611 145.743 59.5898H132.854V66.2938H132.853Z" fill="#08068D"/>
<path d="M9.728 30.224C8.23467 30.224 6.89067 29.968 5.696 29.456C4.50133 28.9227 3.56267 28.176 2.88 27.216C2.19733 26.256 1.856 25.136 1.856 23.856H5.76C5.84533 24.816 6.21867 25.6053 6.88 26.224C7.56267 26.8427 8.512 27.152 9.728 27.152C10.9867 27.152 11.968 26.8533 12.672 26.256C13.376 25.6373 13.728 24.848 13.728 23.888C13.728 23.1413 13.504 22.5333 13.056 22.064C12.6293 21.5947 12.0853 21.232 11.424 20.976C10.784 20.72 9.888 20.4427 8.736 20.144C7.28533 19.76 6.10133 19.376 5.184 18.992C4.288 18.5867 3.52 17.968 2.88 17.136C2.24 16.304 1.92 15.1947 1.92 13.808C1.92 12.528 2.24 11.408 2.88 10.448C3.52 9.488 4.416 8.752 5.568 8.24C6.72 7.728 8.05333 7.472 9.568 7.472C11.7227 7.472 13.4827 8.016 14.848 9.104C16.2347 10.1707 17.0027 11.6427 17.152 13.52H13.12C13.056 12.7093 12.672 12.016 11.968 11.44C11.264 10.864 10.336 10.576 9.184 10.576C8.13867 10.576 7.28533 10.8427 6.624 11.376C5.96267 11.9093 5.632 12.6773 5.632 13.68C5.632 14.3627 5.83467 14.928 6.24 15.376C6.66667 15.8027 7.2 16.144 7.84 16.4C8.48 16.656 9.35467 16.9333 10.464 17.232C11.936 17.6373 13.1307 18.0427 14.048 18.448C14.9867 18.8533 15.776 19.4827 16.416 20.336C17.0773 21.168 17.408 22.288 17.408 23.696C17.408 24.8267 17.0987 25.8933 16.48 26.896C15.8827 27.8987 14.9973 28.7093 13.824 29.328C12.672 29.9253 11.3067 30.224 9.728 30.224ZM31.4725 12.08C32.8165 12.08 34.0112 12.368 35.0565 12.944C36.1232 13.52 36.9552 14.3733 37.5525 15.504C38.1712 16.6347 38.4805 18 38.4805 19.6V30H34.8645V20.144C34.8645 18.5653 34.4698 17.36 33.6805 16.528C32.8912 15.6747 31.8138 15.248 30.4485 15.248C29.0832 15.248 27.9952 15.6747 27.1845 16.528C26.3952 17.36 26.0005 18.5653 26.0005 20.144V30H22.3525V6.32H26.0005V14.416C26.6192 13.6693 27.3978 13.0933 28.3365 12.688C29.2965 12.2827 30.3418 12.08 31.4725 12.08ZM51.4217 30.288C49.7577 30.288 48.2537 29.9147 46.9097 29.168C45.5657 28.4 44.5097 27.3333 43.7417 25.968C42.9737 24.5813 42.5897 22.9813 42.5897 21.168C42.5897 19.376 42.9844 17.7867 43.7737 16.4C44.5631 15.0133 45.6404 13.9467 47.0057 13.2C48.3711 12.4533 49.8964 12.08 51.5817 12.08C53.2671 12.08 54.7924 12.4533 56.1577 13.2C57.5231 13.9467 58.6004 15.0133 59.3897 16.4C60.1791 17.7867 60.5737 19.376 60.5737 21.168C60.5737 22.96 60.1684 24.5493 59.3577 25.936C58.5471 27.3227 57.4378 28.4 56.0297 29.168C54.6431 29.9147 53.1071 30.288 51.4217 30.288ZM51.4217 27.12C52.3604 27.12 53.2351 26.896 54.0457 26.448C54.8777 26 55.5497 25.328 56.0617 24.432C56.5737 23.536 56.8297 22.448 56.8297 21.168C56.8297 19.888 56.5844 18.8107 56.0937 17.936C55.6031 17.04 54.9524 16.368 54.1417 15.92C53.3311 15.472 52.4564 15.248 51.5177 15.248C50.5791 15.248 49.7044 15.472 48.8937 15.92C48.1044 16.368 47.4751 17.04 47.0057 17.936C46.5364 18.8107 46.3017 19.888 46.3017 21.168C46.3017 23.0667 46.7817 24.5387 47.7417 25.584C48.7231 26.608 49.9497 27.12 51.4217 27.12ZM68.468 14.96C69.0867 14.1493 69.9293 13.4667 70.996 12.912C72.0627 12.3573 73.268 12.08 74.612 12.08C76.148 12.08 77.5453 12.464 78.804 13.232C80.084 13.9787 81.0867 15.0347 81.812 16.4C82.5373 17.7653 82.9 19.3333 82.9 21.104C82.9 22.8747 82.5373 24.464 81.812 25.872C81.0867 27.2587 80.084 28.3467 78.804 29.136C77.5453 29.904 76.148 30.288 74.612 30.288C73.268 30.288 72.0733 30.0213 71.028 29.488C69.9827 28.9333 69.1293 28.2507 68.468 27.44V38.384H64.82V12.368H68.468V14.96ZM79.188 21.104C79.188 19.888 78.932 18.8427 78.42 17.968C77.9293 17.072 77.268 16.4 76.436 15.952C75.6253 15.4827 74.7507 15.248 73.812 15.248C72.8947 15.248 72.02 15.4827 71.188 15.952C70.3773 16.4213 69.716 17.104 69.204 18C68.7133 18.896 68.468 19.952 68.468 21.168C68.468 22.384 68.7133 23.4507 69.204 24.368C69.716 25.264 70.3773 25.9467 71.188 26.416C72.02 26.8853 72.8947 27.12 73.812 27.12C74.7507 27.12 75.6253 26.8853 76.436 26.416C77.268 25.9253 77.9293 25.2213 78.42 24.304C78.932 23.3867 79.188 22.32 79.188 21.104Z" fill="#08068D"/>
</svg>
