<svg width="17" height="17" viewBox="0 0 17 17" fill="none" xmlns="http://www.w3.org/2000/svg">
<path d="M10.6133 8.17578L16.0977 13.6602C16.4023 13.9648 16.4023 14.5234 16.0977 14.8281L14.8281 16.0977C14.5234 16.4023 13.9648 16.4023 13.6602 16.0977L8.22656 10.6133L2.74219 16.0977C2.4375 16.4023 1.87891 16.4023 1.57422 16.0977L0.304688 14.8281C0 14.5234 0 13.9648 0.304688 13.6602L5.78906 8.17578L0.304688 2.74219C0 2.4375 0 1.87891 0.304688 1.57422L1.57422 0.304688C1.87891 0 2.4375 0 2.74219 0.304688L8.22656 5.78906L13.6602 0.304688C13.9648 0 14.5234 0 14.8281 0.304688L16.0977 1.57422C16.4023 1.87891 16.4023 2.4375 16.0977 2.74219L10.6133 8.17578Z" fill="#08068D"/>
</svg>
